<svg width="16.000000" height="20.589966" viewBox="0 0 16 20.59" fill="none" xmlns="http://www.w3.org/2000/svg" xmlns:xlink="http://www.w3.org/1999/xlink">
	<desc>
			Created with Pixso.
	</desc>
	<defs/>
	<mask id="mask12_69" mask-type="alpha" maskUnits="userSpaceOnUse" x="0.000000" y="0.000000" width="16.000000" height="20.589966">
		<path id="Vector" d="M0 4.4C0 3.93 0.33 3.52 0.8 3.42L0.83 3.42C3.22 2.94 5.43 1.85 7.26 0.27C7.68 -0.1 8.31 -0.1 8.73 0.27C10.56 1.85 12.77 2.94 15.16 3.42L15.19 3.42C15.66 3.52 16 3.93 16 4.4L16 8.35C16 13.66 12.85 18.46 8 20.59C3.14 18.46 0 13.66 0 8.35L0 4.4Z" fill="#FFFFFF" fill-opacity="1.000000" fill-rule="nonzero"/>
	</mask>
	<g mask="url(#mask12_69)">
		<path id="Vector" d="M8 20.59L7.19 22.42L8 22.77L8.8 22.42L8 20.59ZM14 4.4L14 8.35L18 8.35L18 4.4L14 4.4ZM2 8.35L2 4.4L-2 4.4L-2 8.35L2 8.35ZM-2 8.35C-2 14.45 1.61 19.97 7.19 22.42L8.8 18.75C4.66 16.95 2 12.86 2 8.35L-2 8.35ZM14 8.35C14 12.86 11.33 16.95 7.19 18.75L8.8 22.42C14.38 19.97 18 14.45 18 8.35L14 8.35ZM1.19 5.39L1.23 5.38L0.44 1.46L0.41 1.46L1.19 5.39ZM14.76 5.38L14.8 5.39L15.58 1.46L15.55 1.46L14.76 5.38ZM7.42 1.78C9.51 3.59 12.04 4.83 14.76 5.38L15.55 1.46C13.5 1.05 11.6 0.11 10.04 -1.25L7.42 1.78ZM1.23 5.38C3.95 4.83 6.48 3.59 8.57 1.78L5.95 -1.25C4.39 0.11 2.49 1.05 0.44 1.46L1.23 5.38ZM18 4.4C18 2.97 16.99 1.74 15.58 1.46L14.8 5.39C14.33 5.29 14 4.88 14 4.4L18 4.4ZM10.04 -1.25C8.87 -2.26 7.12 -2.26 5.95 -1.25L8.57 1.78C8.24 2.07 7.75 2.07 7.42 1.78L10.04 -1.25ZM2 4.4C2 4.88 1.66 5.29 1.19 5.39L0.41 1.46C-1 1.74 -2 2.97 -2 4.4L2 4.4Z" fill="#6D6D6D" fill-opacity="1.000000" fill-rule="nonzero"/>
	</g>
</svg>
