<svg width="25.000000" height="25.000000" viewBox="0 0 25 25" fill="none" xmlns="http://www.w3.org/2000/svg" xmlns:xlink="http://www.w3.org/1999/xlink">
	<desc>
			Created with Pixso.
	</desc>
	<defs/>
	<path id="Vector" d="M20.03 19.14C18.22 20.95 15.72 22.07 12.96 22.07C7.44 22.07 2.96 17.59 2.96 12.07C2.96 9.3 4.08 6.81 5.89 5C7.7 3.18 10.2 2.07 12.96 2.07C18.48 2.07 22.96 6.54 22.96 12.07C22.96 14.83 21.84 17.33 20.03 19.14Z" stroke="#6D6D6D" stroke-opacity="0.300000" stroke-width="2.000000"/>
	<path id="Vector" d="M11.42 10.63L7.58 17.04C7.42 17.31 7.72 17.61 7.99 17.45L14.39 13.61C14.44 13.58 14.47 13.54 14.5 13.5L18.34 7.1C18.5 6.83 18.2 6.52 17.93 6.68L11.52 10.53C11.48 10.55 11.45 10.59 11.42 10.63ZM13.67 12.77C13.85 12.59 13.96 12.34 13.96 12.07C13.96 11.51 13.51 11.07 12.96 11.07C12.68 11.07 12.43 11.18 12.25 11.36C12.07 11.54 11.96 11.79 11.96 12.07C11.96 12.62 12.41 13.07 12.96 13.07C13.24 13.07 13.49 12.95 13.67 12.77Z" fill="#6D6D6D" fill-opacity="1.000000" fill-rule="evenodd"/>
</svg>
