<svg width="15" height="16" viewBox="0 0 15 16" fill="none" xmlns="http://www.w3.org/2000/svg">
<path d="M13.8095 4.09375H11.1491V3.78125C11.1491 1.79688 9.53716 0.1875 7.54969 0.1875C5.56221 0.1875 3.95032 1.79688 3.95032 3.78125V4.09375H1.28992C0.943674 4.09375 0.66394 4.37305 0.66394 4.71875V15.1875C0.66394 15.5332 0.943674 15.8125 1.28992 15.8125H13.8095C14.1557 15.8125 14.4354 15.5332 14.4354 15.1875V4.71875C14.4354 4.37305 14.1557 4.09375 13.8095 4.09375ZM5.35877 3.78125C5.35877 2.57227 6.33881 1.59375 7.54969 1.59375C8.76056 1.59375 9.74061 2.57227 9.74061 3.78125V4.09375H5.35877V3.78125ZM13.027 14.4062H2.07239V5.5H3.95032V7.21875C3.95032 7.30469 4.02074 7.375 4.10681 7.375H5.20227C5.28835 7.375 5.35877 7.30469 5.35877 7.21875V5.5H9.74061V7.21875C9.74061 7.30469 9.81103 7.375 9.8971 7.375H10.9926C11.0786 7.375 11.1491 7.30469 11.1491 7.21875V5.5H13.027V14.4062Z" fill="#00ADFF"/>
</svg>
