<svg width="31" height="30" viewBox="0 0 31 30" fill="none" xmlns="http://www.w3.org/2000/svg">
<path d="M13.0243 20.0756L8.34375 15.3872L9.66648 14.0625L13.0243 17.4244L20.1248 10.3125L21.4494 11.6391L13.0243 20.0756Z" fill="#40A356"/>
<path d="M14.8964 1.875C12.3044 1.875 9.77053 2.64477 7.61532 4.08696C5.4601 5.52915 3.78032 7.579 2.78839 9.97728C1.79645 12.3756 1.53691 15.0146 2.0426 17.5606C2.54828 20.1066 3.79647 22.4452 5.62933 24.2808C7.46219 26.1163 9.79739 27.3664 12.3396 27.8728C14.8819 28.3792 17.517 28.1193 19.9117 27.1259C22.3065 26.1325 24.3533 24.4503 25.7934 22.2919C27.2334 20.1335 28.0021 17.5959 28.0021 15C28.0021 11.519 26.6213 8.18064 24.1635 5.71922C21.7057 3.25781 18.3723 1.875 14.8964 1.875ZM14.8964 26.25C12.6747 26.25 10.5028 25.5902 8.65548 24.354C6.80815 23.1179 5.36834 21.3609 4.51811 19.3052C3.66787 17.2495 3.44542 14.9875 3.87886 12.8052C4.3123 10.6229 5.38218 8.61839 6.9532 7.04505C8.52422 5.47171 10.5258 4.40025 12.7049 3.96617C14.884 3.53208 17.1426 3.75487 19.1953 4.60635C21.2479 5.45784 23.0023 6.89978 24.2367 8.74983C25.471 10.5999 26.1298 12.775 26.1298 15C26.1298 17.9837 24.9463 20.8452 22.8396 22.955C20.733 25.0647 17.8757 26.25 14.8964 26.25Z" fill="#40A356"/>
</svg>
