<svg width="24" height="24" viewBox="0 0 24 24" fill="none" xmlns="http://www.w3.org/2000/svg">
<path d="M4 3C3.73478 3 3.48043 3.10536 3.29289 3.29289C3.10536 3.48043 3 3.73478 3 4C3 8.50868 4.79107 12.8327 7.97918 16.0208C11.1673 19.2089 15.4913 21 20 21C20.2652 21 20.5196 20.8946 20.7071 20.7071C20.8946 20.5196 21 20.2652 21 20V16.5C21 16.2348 20.8946 15.9804 20.7071 15.7929C20.5196 15.6054 20.2652 15.5 20 15.5C18.75 15.5 17.55 15.3 16.43 14.93C16.2542 14.874 16.0664 14.8667 15.8868 14.909C15.7072 14.9513 15.5424 15.0415 15.41 15.17L13.21 17.37C10.3714 15.9259 8.06406 13.6186 6.62 10.78L8.82 8.57C8.95245 8.44434 9.04632 8.28352 9.0906 8.1064C9.13488 7.92928 9.12773 7.7432 9.07 7.57C8.69132 6.41789 8.4989 5.21274 8.5 4C8.5 3.73478 8.39464 3.48043 8.20711 3.29289C8.01957 3.10536 7.76522 3 7.5 3H4ZM19 11V9.5H15.5L21 4L20 3L14.5 8.5V5H13V11H19Z" fill="#ffffff"/>
</svg>
