<svg width="18.750000" height="16.666666" viewBox="0 0 18.75 16.6667" fill="none" xmlns="http://www.w3.org/2000/svg" xmlns:xlink="http://www.w3.org/1999/xlink">
	<desc>
			Created with Pixso.
	</desc>
	<defs/>
	<path id="Vector" d="M17.7 14.58C17.97 14.58 18.22 14.68 18.42 14.86C18.61 15.04 18.73 15.29 18.74 15.56C18.76 15.82 18.67 16.09 18.5 16.29C18.33 16.49 18.09 16.62 17.83 16.65L17.7 16.66L1.04 16.66C0.77 16.66 0.52 16.56 0.32 16.38C0.13 16.2 0.01 15.95 0 15.68C-0.02 15.42 0.07 15.16 0.24 14.95C0.41 14.75 0.65 14.62 0.91 14.59L1.04 14.58L17.7 14.58ZM17.7 7.29C17.98 7.29 18.24 7.4 18.44 7.59C18.64 7.79 18.75 8.05 18.75 8.33C18.75 8.6 18.64 8.87 18.44 9.06C18.24 9.26 17.98 9.37 17.7 9.37L1.04 9.37C0.76 9.37 0.5 9.26 0.3 9.06C0.1 8.87 0 8.6 0 8.33C0 8.05 0.1 7.79 0.3 7.59C0.5 7.4 0.76 7.29 1.04 7.29L17.7 7.29ZM17.7 0C17.98 0 18.24 0.1 18.44 0.3C18.64 0.5 18.75 0.76 18.75 1.04C18.75 1.31 18.64 1.58 18.44 1.77C18.24 1.97 17.98 2.08 17.7 2.08L1.04 2.08C0.76 2.08 0.5 1.97 0.3 1.77C0.1 1.58 0 1.31 0 1.04C0 0.76 0.1 0.5 0.3 0.3C0.5 0.1 0.76 0 1.04 0L17.7 0Z" fill="#000000" fill-opacity="1.000000" fill-rule="nonzero"/>
</svg>
