<svg width="14" height="13" viewBox="0 0 14 13" fill="none" xmlns="http://www.w3.org/2000/svg">
<path d="M12.471 8.90362L9.52443 7.58425L9.5163 7.5805C9.36333 7.51512 9.19646 7.48888 9.03079 7.50416C8.86513 7.51944 8.70588 7.57575 8.56747 7.668C8.55118 7.67875 8.53551 7.69044 8.52056 7.703L6.99819 8.99987C6.03374 8.53175 5.038 7.54425 4.56954 6.593L5.86924 5.04862C5.88175 5.033 5.89363 5.01737 5.90489 5.0005C5.99523 4.86256 6.05003 4.70445 6.06444 4.54023C6.07884 4.37601 6.0524 4.21078 5.98745 4.05925V4.05175L4.66335 1.10237C4.5775 0.904414 4.42989 0.739508 4.24254 0.632273C4.05519 0.525037 3.83816 0.481224 3.62384 0.507374C2.77632 0.618815 1.99838 1.03473 1.43532 1.67743C0.872248 2.32014 0.56256 3.14568 0.564093 3.99987C0.564093 8.96237 4.60456 12.9999 9.57071 12.9999C10.4255 13.0014 11.2517 12.6919 11.8949 12.1293C12.538 11.5666 12.9543 10.7893 13.0658 9.94237C13.092 9.72829 13.0482 9.51147 12.941 9.32427C12.8338 9.13706 12.669 8.98951 12.471 8.90362ZM9.57071 11.9999C7.44813 11.9976 5.41315 11.154 3.91226 9.65417C2.41136 8.15438 1.56715 6.12089 1.56483 3.99987C1.56247 3.38955 1.78252 2.79925 2.18387 2.33919C2.58522 1.87913 3.14042 1.58079 3.74581 1.49987C3.74556 1.50237 3.74556 1.50488 3.74581 1.50737L5.05927 4.44487L3.76645 5.99112C3.75332 6.00621 3.7414 6.0223 3.73079 6.03925C3.63667 6.18357 3.58146 6.34975 3.5705 6.52166C3.55954 6.69358 3.59321 6.86541 3.66825 7.0205C4.23491 8.17862 5.40265 9.33675 6.57413 9.90237C6.73048 9.97665 6.90343 10.0091 7.07609 9.99665C7.24875 9.98416 7.41522 9.92713 7.55923 9.83112C7.57529 9.82031 7.59074 9.80863 7.60552 9.79612L9.12601 8.49987L12.0657 9.8155H12.0725C11.9926 10.4213 11.6944 10.9772 11.234 11.3793C10.7735 11.7813 10.1822 12.0019 9.57071 11.9999Z" fill="#1F1F1F"/>
</svg>
