<svg width="15" height="14" viewBox="0 0 15 14" fill="none" xmlns="http://www.w3.org/2000/svg">
<path d="M13.9911 9.41215L10.6882 7.93444L10.6791 7.93023C10.5077 7.85701 10.3206 7.82763 10.1349 7.84474C9.94921 7.86185 9.77071 7.92492 9.61556 8.02824C9.59729 8.04028 9.57974 8.05337 9.56298 8.06744L7.8565 9.51995C6.77541 8.99565 5.65926 7.88963 5.13413 6.82422L6.59102 5.09451C6.60504 5.07701 6.61836 5.05951 6.63098 5.04061C6.73224 4.88612 6.79367 4.70903 6.80982 4.5251C6.82597 4.34118 6.79632 4.15612 6.72353 3.9864V3.978L5.2393 0.674665C5.14306 0.452948 4.97759 0.268251 4.76759 0.148147C4.55758 0.028042 4.3143 -0.0210292 4.07407 0.00825843C3.12406 0.133074 2.25204 0.598902 1.62088 1.31874C0.989716 2.03857 0.642576 2.96319 0.644293 3.9199C0.644293 9.47795 5.17339 14 10.7401 14C11.6983 14.0017 12.6244 13.6551 13.3453 13.0249C14.0663 12.3948 14.5329 11.5241 14.6579 10.5756C14.6873 10.3358 14.6382 10.0929 14.518 9.88328C14.3979 9.67361 14.2131 9.50835 13.9911 9.41215ZM10.7401 12.88C8.36085 12.8774 6.07977 11.9325 4.39737 10.2528C2.71496 8.57299 1.76865 6.29546 1.76605 3.9199C1.76341 3.23633 2.01007 2.57518 2.45996 2.05991C2.90984 1.54465 3.53219 1.2105 4.21079 1.11987C4.21051 1.12266 4.21051 1.12548 4.21079 1.12827L5.68309 4.4183L4.23392 6.15012C4.21921 6.16702 4.20585 6.18504 4.19396 6.20402C4.08845 6.36566 4.02656 6.55178 4.01428 6.74433C4.00199 6.93687 4.03974 7.12933 4.12385 7.30303C4.75905 8.60014 6.068 9.89725 7.38116 10.5308C7.55641 10.614 7.75027 10.6503 7.94382 10.6363C8.13736 10.6224 8.32396 10.5585 8.48539 10.451C8.50339 10.4389 8.52071 10.4258 8.53727 10.4118L10.2416 8.95995L13.5368 10.4335H13.5445C13.4549 11.112 13.1207 11.7346 12.6045 12.1849C12.0884 12.6352 11.4256 12.8823 10.7401 12.88Z" fill="#41A2D0"/>
</svg>
