<svg width="28.938477" height="29.068237" viewBox="0 0 28.9385 29.0682" fill="none" xmlns="http://www.w3.org/2000/svg" xmlns:xlink="http://www.w3.org/1999/xlink">
	<desc>
			Created with Pixso.
	</desc>
	<defs>
		<linearGradient x1="1397.311523" y1="2806.694824" x2="1397.311523" y2="0.503418" id="paint_linear_12_34_0" gradientUnits="userSpaceOnUse">
			<stop stop-color="#1FAF38"/>
			<stop offset="1.000000" stop-color="#6934FF"/>
		</linearGradient>
		<linearGradient x1="1446.927490" y1="2906.821045" x2="1446.927490" y2="0.000000" id="paint_linear_12_35_0" gradientUnits="userSpaceOnUse">
			<stop stop-color="#F9F9F9"/>
			<stop offset="1.000000" stop-color="#FFFFFF"/>
		</linearGradient>
	</defs>
	<path id="Vector" d="M0.61 14.4C0.61 16.85 1.25 19.25 2.47 21.35L0.5 28.56L7.87 26.63C9.91 27.74 12.19 28.32 14.52 28.32L14.52 28.32C22.19 28.32 28.43 22.08 28.43 14.41C28.43 10.7 26.99 7.2 24.36 4.58C21.74 1.95 18.24 0.5 14.52 0.5C6.86 0.5 0.62 6.74 0.61 14.4Z" fill="url(#paint_linear_12_34_0)" fill-opacity="1.000000" fill-rule="nonzero"/>
	<path id="Vector" d="M0.12 14.4C0.12 16.94 0.78 19.42 2.04 21.6L0 29.06L7.63 27.06C9.74 28.21 12.11 28.81 14.52 28.81L14.52 28.81C22.47 28.81 28.93 22.35 28.93 14.41C28.93 10.56 27.44 6.94 24.72 4.22C22 1.5 18.38 0 14.52 0C6.58 0 0.12 6.46 0.12 14.4ZM4.66 21.22L4.38 20.77C3.18 18.86 2.55 16.66 2.55 14.4C2.55 7.8 7.92 2.43 14.53 2.43C17.73 2.43 20.74 3.68 23 5.94C25.26 8.2 26.5 11.21 26.5 14.41C26.5 21.01 21.13 26.38 14.52 26.38L14.52 26.38C12.37 26.38 10.26 25.8 8.42 24.71L7.99 24.45L3.45 25.64L4.66 21.22Z" fill="url(#paint_linear_12_35_0)" fill-opacity="1.000000" fill-rule="nonzero"/>
	<path id="Vector" d="M10.92 8.38C10.65 7.78 10.37 7.77 10.11 7.75C9.9 7.75 9.66 7.75 9.42 7.75C9.18 7.75 8.79 7.84 8.46 8.2C8.13 8.56 7.2 9.43 7.2 11.2C7.2 12.97 8.49 14.68 8.67 14.92C8.85 15.16 11.16 18.91 14.82 20.36C17.86 21.56 18.48 21.32 19.14 21.26C19.8 21.2 21.27 20.39 21.57 19.55C21.87 18.71 21.87 17.99 21.78 17.83C21.69 17.68 21.45 17.59 21.09 17.41C20.73 17.23 18.96 16.36 18.63 16.24C18.3 16.12 18.06 16.06 17.82 16.42C17.58 16.78 16.89 17.59 16.68 17.83C16.47 18.08 16.26 18.11 15.9 17.93C15.54 17.74 14.38 17.36 13.01 16.14C11.94 15.18 11.22 14.01 11.01 13.65C10.8 13.29 10.98 13.09 11.16 12.91C11.32 12.75 11.52 12.49 11.7 12.28C11.88 12.07 11.94 11.92 12.06 11.68C12.18 11.44 12.12 11.23 12.03 11.05C11.94 10.87 11.24 9.09 10.92 8.38Z" fill="#FFFFFF" fill-opacity="1.000000" fill-rule="nonzero"/>
</svg>
