<svg width="20.000000" height="24.772949" viewBox="0 0 20 24.7729" fill="none" xmlns="http://www.w3.org/2000/svg" xmlns:xlink="http://www.w3.org/1999/xlink">
	<desc>
			Created with Pixso.
	</desc>
	<defs/>
	<path id="Vector" d="M10 22.58L9.19 24.42L10 24.77L10.8 24.42L10 22.58ZM16 6.4L16 10.35L20 10.35L20 6.4L16 6.4ZM4 10.35L4 6.4L0 6.4L0 10.35L4 10.35ZM0 10.35C0 16.45 3.61 21.97 9.19 24.42L10.8 20.75C6.66 18.95 4 14.86 4 10.35L0 10.35ZM16 10.35C16 14.86 13.33 18.95 9.19 20.75L10.8 24.42C16.38 21.97 20 16.45 20 10.35L16 10.35ZM3.19 7.39L3.23 7.38L2.44 3.46L2.41 3.46L3.19 7.39ZM16.76 7.38L16.8 7.39L17.58 3.46L17.55 3.46L16.76 7.38ZM9.42 3.78C11.51 5.59 14.04 6.83 16.76 7.38L17.55 3.46C15.5 3.05 13.6 2.11 12.04 0.75L9.42 3.78ZM3.23 7.38C5.95 6.83 8.48 5.59 10.57 3.78L7.95 0.75C6.39 2.11 4.49 3.05 2.44 3.46L3.23 7.38ZM20 6.4C20 4.97 18.99 3.74 17.58 3.46L16.8 7.39C16.33 7.29 16 6.88 16 6.4L20 6.4ZM12.04 0.75C10.87 -0.26 9.12 -0.26 7.95 0.75L10.57 3.78C10.24 4.07 9.75 4.07 9.42 3.78L12.04 0.75ZM4 6.4C4 6.88 3.66 7.29 3.19 7.39L2.41 3.46C1 3.74 0 4.97 0 6.4L4 6.4Z" fill="#FFFFFF" fill-opacity="1.000000" fill-rule="nonzero"/>
</svg>
