<svg width="84.000000" height="84.000000" viewBox="0 0 84 84" fill="none" xmlns="http://www.w3.org/2000/svg" xmlns:xlink="http://www.w3.org/1999/xlink">
	<desc>
			Created with Pixso.
	</desc>
	<defs/>
	<circle id="Ellipse 23" cx="2.000000" cy="2.000000" r="2.000000" fill="#ABB2BF" fill-opacity="1.000000"/>
	<circle id="Ellipse 21" cx="22.000000" cy="2.000000" r="2.000000" fill="#ABB2BF" fill-opacity="1.000000"/>
	<circle id="Ellipse 22" cx="42.000000" cy="2.000000" r="2.000000" fill="#ABB2BF" fill-opacity="1.000000"/>
	<circle id="Ellipse 20" cx="62.000000" cy="2.000000" r="2.000000" fill="#ABB2BF" fill-opacity="1.000000"/>
	<circle id="Ellipse 36" cx="82.000000" cy="2.000000" r="2.000000" fill="#ABB2BF" fill-opacity="1.000000"/>
	<circle id="Ellipse 25" cx="2.000000" cy="22.000000" r="2.000000" fill="#ABB2BF" fill-opacity="1.000000"/>
	<circle id="Ellipse 26" cx="22.000000" cy="22.000000" r="2.000000" fill="#ABB2BF" fill-opacity="1.000000"/>
	<circle id="Ellipse 24" cx="42.000000" cy="22.000000" r="2.000000" fill="#ABB2BF" fill-opacity="1.000000"/>
	<circle id="Ellipse 19" cx="62.000000" cy="22.000000" r="2.000000" fill="#ABB2BF" fill-opacity="1.000000"/>
	<circle id="Ellipse 36" cx="82.000000" cy="22.000000" r="2.000000" fill="#ABB2BF" fill-opacity="1.000000"/>
	<circle id="Ellipse 29" cx="2.000000" cy="42.000000" r="2.000000" fill="#ABB2BF" fill-opacity="1.000000"/>
	<circle id="Ellipse 30" cx="22.000000" cy="42.000000" r="2.000000" fill="#ABB2BF" fill-opacity="1.000000"/>
	<circle id="Ellipse 28" cx="42.000000" cy="42.000000" r="2.000000" fill="#ABB2BF" fill-opacity="1.000000"/>
	<circle id="Ellipse 19" cx="62.000000" cy="42.000000" r="2.000000" fill="#ABB2BF" fill-opacity="1.000000"/>
	<circle id="Ellipse 36" cx="82.000000" cy="42.000000" r="2.000000" fill="#ABB2BF" fill-opacity="1.000000"/>
	<circle id="Ellipse 33" cx="2.000000" cy="62.000000" r="2.000000" fill="#ABB2BF" fill-opacity="1.000000"/>
	<circle id="Ellipse 34" cx="22.000000" cy="62.000000" r="2.000000" fill="#ABB2BF" fill-opacity="1.000000"/>
	<circle id="Ellipse 32" cx="42.000000" cy="62.000000" r="2.000000" fill="#ABB2BF" fill-opacity="1.000000"/>
	<circle id="Ellipse 19" cx="62.000000" cy="62.000000" r="2.000000" fill="#ABB2BF" fill-opacity="1.000000"/>
	<circle id="Ellipse 36" cx="82.000000" cy="62.000000" r="2.000000" fill="#ABB2BF" fill-opacity="1.000000"/>
	<circle id="Ellipse 33" cx="2.000000" cy="82.000000" r="2.000000" fill="#ABB2BF" fill-opacity="1.000000"/>
	<circle id="Ellipse 34" cx="22.000000" cy="82.000000" r="2.000000" fill="#ABB2BF" fill-opacity="1.000000"/>
	<circle id="Ellipse 32" cx="42.000000" cy="82.000000" r="2.000000" fill="#ABB2BF" fill-opacity="1.000000"/>
	<circle id="Ellipse 19" cx="62.000000" cy="82.000000" r="2.000000" fill="#ABB2BF" fill-opacity="1.000000"/>
	<circle id="Ellipse 36" cx="82.000000" cy="82.000000" r="2.000000" fill="#ABB2BF" fill-opacity="1.000000"/>
</svg>
