<svg width="25.000000" height="25.000000" viewBox="0 0 25 25" fill="none" xmlns="http://www.w3.org/2000/svg" xmlns:xlink="http://www.w3.org/1999/xlink">
	<path id="Vector" d="M12.84 15.07C11.18 15.07 9.84 13.72 9.84 12.07C9.84 10.41 11.18 9.07 12.84 9.07C14.5 9.07 15.84 10.41 15.84 12.07C15.84 13.72 14.5 15.07 12.84 15.07Z" stroke="#6C32FE" stroke-opacity="1.000000" stroke-width="2.000000"/>
	<path id="Vector" d="M10.82 5.92C9.95 6.2 9.17 6.65 8.51 7.24L5.82 6.22L4.27 8.91L6.48 10.72C6.39 11.16 6.34 11.61 6.34 12.07C6.34 12.53 6.39 12.98 6.48 13.41L4.27 15.22L5.82 17.91L8.51 16.9C9.17 17.48 9.96 17.94 10.82 18.22L11.28 21.07L14.39 21.07L14.86 18.22C15.72 17.94 16.51 17.48 17.17 16.89L19.85 17.91L21.41 15.22L19.2 13.41C19.29 12.98 19.34 12.53 19.34 12.07C19.34 11.61 19.29 11.16 19.2 10.72L21.41 8.91L19.85 6.22L17.16 7.24C16.5 6.65 15.72 6.2 14.86 5.92L14.39 3.07L11.28 3.07L10.82 5.92Z" stroke="#6C32FE" stroke-opacity="0.300000" stroke-width="2.000000"/>
</svg>
