<svg width="25.000000" height="25.000000" viewBox="0 0 25 25" fill="none" xmlns="http://www.w3.org/2000/svg" xmlns:xlink="http://www.w3.org/1999/xlink">
	<desc>
			Created with Pixso.
	</desc>
	<defs/>
	<mask id="mask12_61" mask-type="alpha" maskUnits="userSpaceOnUse" x="4.228516" y="2.481812" width="16.000000" height="20.589966">
		<path id="Vector" d="M4.22 6.89C4.22 6.41 4.56 6 5.03 5.91L5.06 5.9C7.45 5.42 9.66 4.33 11.49 2.75C11.91 2.39 12.54 2.39 12.96 2.75C14.78 4.33 17 5.42 19.38 5.9L19.42 5.91C19.89 6 20.22 6.41 20.22 6.89L20.22 10.83C20.22 16.14 17.08 20.94 12.22 23.07C7.36 20.94 4.22 16.14 4.22 10.83L4.22 6.89Z" fill="#FFFFFF" fill-opacity="1.000000" fill-rule="nonzero"/>
	</mask>
	<g mask="url(#mask12_61)">
		<path id="Vector" d="M12.22 23.07L11.42 24.9L12.22 25.25L13.03 24.9L12.22 23.07ZM18.22 6.89L18.22 10.83L22.22 10.83L22.22 6.89L18.22 6.89ZM6.22 10.83L6.22 6.89L2.22 6.89L2.22 10.83L6.22 10.83ZM2.22 10.83C2.22 16.93 5.83 22.45 11.42 24.9L13.03 21.23C8.89 19.43 6.22 15.34 6.22 10.83L2.22 10.83ZM18.22 10.83C18.22 15.34 15.55 19.43 11.42 21.23L13.03 24.9C18.61 22.45 22.22 16.93 22.22 10.83L18.22 10.83ZM5.42 7.87L5.46 7.86L4.67 3.94L4.64 3.94L5.42 7.87ZM18.99 7.86L19.03 7.87L19.81 3.94L19.78 3.94L18.99 7.86ZM11.65 4.26C13.74 6.07 16.27 7.31 18.99 7.86L19.78 3.94C17.73 3.53 15.83 2.6 14.27 1.24L11.65 4.26ZM5.46 7.86C8.18 7.31 10.71 6.07 12.8 4.26L10.18 1.24C8.61 2.6 6.72 3.53 4.67 3.94L5.46 7.86ZM22.22 6.89C22.22 5.46 21.21 4.23 19.81 3.94L19.03 7.87C18.56 7.77 18.22 7.36 18.22 6.89L22.22 6.89ZM14.27 1.24C13.1 0.22 11.35 0.22 10.18 1.24L12.8 4.26C12.47 4.55 11.98 4.55 11.65 4.26L14.27 1.24ZM6.22 6.89C6.22 7.36 5.89 7.77 5.42 7.87L4.64 3.94C3.23 4.23 2.22 5.46 2.22 6.89L6.22 6.89Z" fill="#6C32FE" fill-opacity="0.300000" fill-rule="nonzero"/>
	</g>
	<mask id="mask12_65" mask-type="alpha" maskUnits="userSpaceOnUse" x="12.228516" y="1.071777" width="12.000000" height="22.000000">
		<path id="Vector" d="M12.22 1.07L24.22 1.07L24.22 23.07L12.22 23.07L12.22 1.07Z" fill="#000000" fill-opacity="1.000000" fill-rule="evenodd"/>
	</mask>
	<g mask="url(#mask12_65)">
		<mask id="mask12_69" mask-type="alpha" maskUnits="userSpaceOnUse" x="4.228516" y="2.481812" width="16.000000" height="20.589966">
			<path id="Vector" d="M4.22 6.89C4.22 6.41 4.56 6 5.03 5.91L5.06 5.9C7.45 5.42 9.66 4.33 11.49 2.75C11.91 2.39 12.54 2.39 12.96 2.75C14.78 4.33 17 5.42 19.38 5.9L19.42 5.91C19.89 6 20.22 6.41 20.22 6.89L20.22 10.83C20.22 16.14 17.08 20.94 12.22 23.07C7.36 20.94 4.22 16.14 4.22 10.83L4.22 6.89Z" fill="#FFFFFF" fill-opacity="1.000000" fill-rule="nonzero"/>
		</mask>
		<g mask="url(#mask12_69)">
			<path id="Vector" d="M12.22 23.07L11.42 24.9L12.22 25.25L13.03 24.9L12.22 23.07ZM18.22 6.89L18.22 10.83L22.22 10.83L22.22 6.89L18.22 6.89ZM6.22 10.83L6.22 6.89L2.22 6.89L2.22 10.83L6.22 10.83ZM2.22 10.83C2.22 16.93 5.83 22.45 11.42 24.9L13.03 21.23C8.89 19.43 6.22 15.34 6.22 10.83L2.22 10.83ZM18.22 10.83C18.22 15.34 15.55 19.43 11.42 21.23L13.03 24.9C18.61 22.45 22.22 16.93 22.22 10.83L18.22 10.83ZM5.42 7.87L5.46 7.86L4.67 3.94L4.64 3.94L5.42 7.87ZM18.99 7.86L19.03 7.87L19.81 3.94L19.78 3.94L18.99 7.86ZM11.65 4.26C13.74 6.07 16.27 7.31 18.99 7.86L19.78 3.94C17.73 3.53 15.83 2.6 14.27 1.24L11.65 4.26ZM5.46 7.86C8.18 7.31 10.71 6.07 12.8 4.26L10.18 1.24C8.61 2.6 6.72 3.53 4.67 3.94L5.46 7.86ZM22.22 6.89C22.22 5.46 21.21 4.23 19.81 3.94L19.03 7.87C18.56 7.77 18.22 7.36 18.22 6.89L22.22 6.89ZM14.27 1.24C13.1 0.22 11.35 0.22 10.18 1.24L12.8 4.26C12.47 4.55 11.98 4.55 11.65 4.26L14.27 1.24ZM6.22 6.89C6.22 7.36 5.89 7.77 5.42 7.87L4.64 3.94C3.23 4.23 2.22 5.46 2.22 6.89L6.22 6.89Z" fill="#6C32FE" fill-opacity="1.000000" fill-rule="nonzero"/>
		</g>
	</g>
</svg>
