<svg width="17.187500" height="19.531250" viewBox="0 0 17.1875 19.5312" fill="none" xmlns="http://www.w3.org/2000/svg" xmlns:xlink="http://www.w3.org/1999/xlink">
	<desc>
			Created with Pixso.
	</desc>
	<defs/>
	<path id="Vector" d="M16.4 4.88L13.08 4.88L13.08 4.49C13.08 2.01 11.07 0 8.59 0C6.11 0 4.1 2.01 4.1 4.49L4.1 4.88L0.78 4.88C0.34 4.88 0 5.23 0 5.66L0 18.75C0 19.18 0.34 19.53 0.78 19.53L16.4 19.53C16.83 19.53 17.18 19.18 17.18 18.75L17.18 5.66C17.18 5.23 16.83 4.88 16.4 4.88ZM5.85 4.49C5.85 2.98 7.08 1.75 8.59 1.75C10.1 1.75 11.32 2.98 11.32 4.49L11.32 4.88L5.85 4.88L5.85 4.49ZM15.42 17.77L1.75 17.77L1.75 6.64L4.1 6.64L4.1 8.78C4.1 8.89 4.18 8.98 4.29 8.98L5.66 8.98C5.77 8.98 5.85 8.89 5.85 8.78L5.85 6.64L11.32 6.64L11.32 8.78C11.32 8.89 11.41 8.98 11.52 8.98L12.89 8.98C12.99 8.98 13.08 8.89 13.08 8.78L13.08 6.64L15.42 6.64L15.42 17.77Z" fill="#000000" fill-opacity="1.000000" fill-rule="nonzero"/>
</svg>
