<svg width="24" height="24" viewBox="0 0 24 24" fill="none" xmlns="http://www.w3.org/2000/svg">
<path fill-rule="evenodd" clip-rule="evenodd" d="M7.099 1.25H16.9C17.917 1.25 18.617 1.25 19.206 1.454C19.7563 1.64868 20.2544 1.96753 20.6616 2.38583C21.0688 2.80413 21.3742 3.31062 21.554 3.866C21.75 4.463 21.749 5.173 21.749 6.226V20.374C21.749 21.84 20.022 22.712 18.885 21.671C18.8485 21.6361 18.8 21.6166 18.7495 21.6166C18.699 21.6166 18.6505 21.6361 18.614 21.671L18.13 22.113C17.202 22.963 15.796 22.963 14.868 22.113C14.7 21.9562 14.4788 21.8689 14.249 21.8689C14.0192 21.8689 13.798 21.9562 13.63 22.113C12.702 22.963 11.296 22.963 10.368 22.113C10.2 21.9562 9.9788 21.8689 9.749 21.8689C9.5192 21.8689 9.29797 21.9562 9.13 22.113C8.202 22.963 6.796 22.963 5.868 22.113L5.385 21.671C5.34847 21.6358 5.29973 21.6161 5.249 21.6161C5.19828 21.6161 5.14953 21.6358 5.113 21.671C3.976 22.711 2.249 21.84 2.249 20.374V6.227C2.249 5.173 2.249 4.463 2.444 3.866C2.62381 3.31062 2.92916 2.80413 3.33636 2.38583C3.74356 1.96753 4.24165 1.64868 4.792 1.454C5.382 1.249 6.082 1.25 7.099 1.25ZM7.244 2.75C6.023 2.75 5.602 2.76 5.284 2.871C4.95189 2.99007 4.65162 3.18395 4.40643 3.43764C4.16124 3.69133 3.97769 3.99803 3.87 4.334C3.759 4.672 3.75 5.118 3.75 6.37V20.374C3.75 20.494 3.809 20.566 3.884 20.601C3.91822 20.6173 3.95637 20.6235 3.994 20.619C4.03447 20.6121 4.07182 20.5929 4.101 20.564C4.41391 20.2759 4.82369 20.116 5.249 20.116C5.67432 20.116 6.08409 20.2759 6.397 20.564L6.88 21.006C7.04797 21.1628 7.2692 21.2501 7.499 21.2501C7.7288 21.2501 7.95004 21.1628 8.118 21.006C8.56244 20.5965 9.14467 20.3692 9.749 20.3692C10.3533 20.3692 10.9356 20.5965 11.38 21.006C11.548 21.1628 11.7692 21.2501 11.999 21.2501C12.2288 21.2501 12.45 21.1628 12.618 21.006C13.0624 20.5965 13.6447 20.3692 14.249 20.3692C14.8533 20.3692 15.4356 20.5965 15.88 21.006C16.048 21.1628 16.2692 21.2501 16.499 21.2501C16.7288 21.2501 16.95 21.1628 17.118 21.006L17.601 20.564C17.9139 20.2759 18.3237 20.116 18.749 20.116C19.1743 20.116 19.5841 20.2759 19.897 20.564C19.94 20.604 19.977 20.616 20.005 20.619C20.0423 20.6234 20.0801 20.6171 20.114 20.601C20.189 20.566 20.249 20.493 20.249 20.374V6.37C20.249 5.118 20.239 4.672 20.129 4.333C20.021 3.997 19.8371 3.69037 19.5915 3.43685C19.346 3.18332 19.0454 2.98971 18.713 2.871C18.396 2.761 17.975 2.751 16.754 2.751L7.244 2.75ZM6.25 7.5C6.25 7.30109 6.32902 7.11032 6.46967 6.96967C6.61032 6.82902 6.80109 6.75 7 6.75H7.5C7.69891 6.75 7.88968 6.82902 8.03033 6.96967C8.17098 7.11032 8.25 7.30109 8.25 7.5C8.25 7.69891 8.17098 7.88968 8.03033 8.03033C7.88968 8.17098 7.69891 8.25 7.5 8.25H7C6.80109 8.25 6.61032 8.17098 6.46967 8.03033C6.32902 7.88968 6.25 7.69891 6.25 7.5ZM9.75 7.5C9.75 7.30109 9.82902 7.11032 9.96967 6.96967C10.1103 6.82902 10.3011 6.75 10.5 6.75H17C17.1989 6.75 17.3897 6.82902 17.5303 6.96967C17.671 7.11032 17.75 7.30109 17.75 7.5C17.75 7.69891 17.671 7.88968 17.5303 8.03033C17.3897 8.17098 17.1989 8.25 17 8.25H10.5C10.3011 8.25 10.1103 8.17098 9.96967 8.03033C9.82902 7.88968 9.75 7.69891 9.75 7.5ZM6.25 11C6.25 10.8011 6.32902 10.6103 6.46967 10.4697C6.61032 10.329 6.80109 10.25 7 10.25H7.5C7.69891 10.25 7.88968 10.329 8.03033 10.4697C8.17098 10.6103 8.25 10.8011 8.25 11C8.25 11.1989 8.17098 11.3897 8.03033 11.5303C7.88968 11.671 7.69891 11.75 7.5 11.75H7C6.80109 11.75 6.61032 11.671 6.46967 11.5303C6.32902 11.3897 6.25 11.1989 6.25 11ZM9.75 11C9.75 10.8011 9.82902 10.6103 9.96967 10.4697C10.1103 10.329 10.3011 10.25 10.5 10.25H17C17.1989 10.25 17.3897 10.329 17.5303 10.4697C17.671 10.6103 17.75 10.8011 17.75 11C17.75 11.1989 17.671 11.3897 17.5303 11.5303C17.3897 11.671 17.1989 11.75 17 11.75H10.5C10.3011 11.75 10.1103 11.671 9.96967 11.5303C9.82902 11.3897 9.75 11.1989 9.75 11ZM6.25 14.5C6.25 14.3011 6.32902 14.1103 6.46967 13.9697C6.61032 13.829 6.80109 13.75 7 13.75H7.5C7.69891 13.75 7.88968 13.829 8.03033 13.9697C8.17098 14.1103 8.25 14.3011 8.25 14.5C8.25 14.6989 8.17098 14.8897 8.03033 15.0303C7.88968 15.171 7.69891 15.25 7.5 15.25H7C6.80109 15.25 6.61032 15.171 6.46967 15.0303C6.32902 14.8897 6.25 14.6989 6.25 14.5ZM9.75 14.5C9.75 14.3011 9.82902 14.1103 9.96967 13.9697C10.1103 13.829 10.3011 13.75 10.5 13.75H17C17.1989 13.75 17.3897 13.829 17.5303 13.9697C17.671 14.1103 17.75 14.3011 17.75 14.5C17.75 14.6989 17.671 14.8897 17.5303 15.0303C17.3897 15.171 17.1989 15.25 17 15.25H10.5C10.3011 15.25 10.1103 15.171 9.96967 15.0303C9.82902 14.8897 9.75 14.6989 9.75 14.5Z" fill="#6934FF"/>
</svg>
