<svg width="11" height="15" viewBox="0 0 11 15" fill="none" xmlns="http://www.w3.org/2000/svg">
<path d="M8.57082 0.9375C8.83624 0.9375 9.09078 1.03627 9.27845 1.21209C9.46612 1.3879 9.57156 1.62636 9.57156 1.875V13.125C9.57156 13.3736 9.46612 13.6121 9.27845 13.7879C9.09078 13.9637 8.83624 14.0625 8.57082 14.0625H2.56641C2.301 14.0625 2.04646 13.9637 1.85879 13.7879C1.67111 13.6121 1.56568 13.3736 1.56568 13.125V1.875C1.56568 1.62636 1.67111 1.3879 1.85879 1.21209C2.04646 1.03627 2.301 0.9375 2.56641 0.9375H8.57082ZM2.56641 0C2.03559 0 1.52651 0.197544 1.15116 0.549175C0.77581 0.900806 0.564941 1.37772 0.564941 1.875V13.125C0.564941 13.6223 0.77581 14.0992 1.15116 14.4508C1.52651 14.8025 2.03559 15 2.56641 15H8.57082C9.10165 15 9.61073 14.8025 9.98608 14.4508C10.3614 14.0992 10.5723 13.6223 10.5723 13.125V1.875C10.5723 1.37772 10.3614 0.900806 9.98608 0.549175C9.61073 0.197544 9.10165 0 8.57082 0L2.56641 0Z" fill="black"/>
<path d="M5.56861 13.125C5.83402 13.125 6.08856 13.0262 6.27623 12.8504C6.46391 12.6746 6.56934 12.4361 6.56934 12.1875C6.56934 11.9389 6.46391 11.7004 6.27623 11.5246C6.08856 11.3488 5.83402 11.25 5.56861 11.25C5.30319 11.25 5.04865 11.3488 4.86098 11.5246C4.67331 11.7004 4.56787 11.9389 4.56787 12.1875C4.56787 12.4361 4.67331 12.6746 4.86098 12.8504C5.04865 13.0262 5.30319 13.125 5.56861 13.125Z" fill="black"/>
</svg>
