<svg width="17" height="17" viewBox="0 0 17 17" fill="none" xmlns="http://www.w3.org/2000/svg">
<path d="M15.7541 11.3797L12.0678 9.73046L12.0577 9.72578C11.8663 9.64405 11.6575 9.61126 11.4503 9.63036C11.243 9.64945 11.0438 9.71984 10.8707 9.83515C10.8503 9.8486 10.8307 9.8632 10.812 9.8789L8.90744 11.5C7.70087 10.9148 6.45518 9.68046 5.86911 8.4914L7.49508 6.56093C7.51073 6.5414 7.5256 6.52187 7.53968 6.50078C7.65269 6.32836 7.72126 6.13071 7.73928 5.92544C7.7573 5.72017 7.72422 5.51363 7.64297 5.32421V5.31484L5.98648 1.62812C5.87908 1.38067 5.6944 1.17454 5.46002 1.04049C5.22564 0.906449 4.95413 0.851683 4.68601 0.884369C3.62574 1.02367 2.65251 1.54356 1.94809 2.34694C1.24367 3.15032 0.856244 4.18225 0.858161 5.24999C0.858161 11.4531 5.91293 16.5 12.1257 16.5C13.1952 16.5019 14.2287 16.1151 15.0333 15.4118C15.838 14.7084 16.3587 13.7367 16.4982 12.6781C16.531 12.4105 16.4763 12.1395 16.3422 11.9055C16.208 11.6715 16.0018 11.487 15.7541 11.3797ZM12.1257 15.25C9.47033 15.2471 6.9245 14.1926 5.04683 12.3179C3.16916 10.4431 2.11302 7.90127 2.11012 5.24999C2.10717 4.4871 2.38246 3.74921 2.88456 3.17414C3.38666 2.59907 4.08124 2.22614 4.83859 2.12499C4.83828 2.12811 4.83828 2.13125 4.83859 2.13437L6.48178 5.80624L4.86441 7.73906C4.848 7.75792 4.83309 7.77803 4.81981 7.79921C4.70206 7.97962 4.63299 8.18733 4.61928 8.40223C4.60557 8.61713 4.64769 8.83191 4.74157 9.02578C5.45049 10.4734 6.91136 11.9211 8.37693 12.6281C8.57252 12.721 8.78889 12.7616 9.0049 12.746C9.2209 12.7304 9.42916 12.6591 9.60932 12.5391C9.62941 12.5255 9.64874 12.5109 9.66722 12.4953L11.5694 10.875L15.247 12.5195H15.2556C15.1556 13.2768 14.7826 13.9717 14.2065 14.4742C13.6305 14.9768 12.8907 15.2526 12.1257 15.25Z" fill="#00ADFF"/>
</svg>
