<svg width="25.000000" height="25.000000" viewBox="0 0 25 25" fill="none" xmlns="http://www.w3.org/2000/svg" xmlns:xlink="http://www.w3.org/1999/xlink">
	<desc>
			Created with Pixso.
	</desc>
	<defs/>
	<mask id="mask12_126" mask-type="alpha" maskUnits="userSpaceOnUse" x="4.282227" y="2.718140" width="16.000000" height="20.589935">
		<path id="Vector" d="M4.28 7.12C4.28 6.65 4.61 6.24 5.08 6.14L5.12 6.14C7.5 5.66 9.72 4.57 11.55 2.98C11.96 2.62 12.59 2.62 13.01 2.98C14.84 4.57 17.05 5.66 19.44 6.14L19.47 6.14C19.94 6.24 20.28 6.65 20.28 7.12L20.28 11.07C20.28 16.38 17.14 21.18 12.28 23.3C7.42 21.18 4.28 16.38 4.28 11.07L4.28 7.12Z" fill="#FFFFFF" fill-opacity="1.000000" fill-rule="nonzero"/>
	</mask>
	<g mask="url(#mask12_126)">
		<path id="Vector" d="M12.28 23.3L11.48 25.14L12.28 25.49L13.08 25.14L12.28 23.3ZM18.28 7.12L18.28 11.07L22.28 11.07L22.28 7.12L18.28 7.12ZM6.28 11.07L6.28 7.12L2.28 7.12L2.28 11.07L6.28 11.07ZM2.28 11.07C2.28 17.17 5.89 22.69 11.48 25.14L13.08 21.47C8.95 19.66 6.28 15.58 6.28 11.07L2.28 11.07ZM18.28 11.07C18.28 15.58 15.61 19.66 11.48 21.47L13.08 25.14C18.67 22.69 22.28 17.17 22.28 11.07L18.28 11.07ZM5.47 8.1L5.51 8.1L4.72 4.17L4.69 4.18L5.47 8.1ZM19.05 8.1L19.08 8.1L19.87 4.18L19.83 4.17L19.05 8.1ZM11.7 4.5C13.79 6.31 16.32 7.55 19.05 8.1L19.83 4.17C17.79 3.77 15.89 2.83 14.32 1.47L11.7 4.5ZM5.51 8.1C8.23 7.55 10.76 6.31 12.86 4.5L10.24 1.47C8.67 2.83 6.77 3.77 4.72 4.17L5.51 8.1ZM22.28 7.12C22.28 5.69 21.27 4.46 19.87 4.18L19.08 8.1C18.61 8.01 18.28 7.6 18.28 7.12L22.28 7.12ZM14.32 1.47C13.15 0.46 11.4 0.46 10.24 1.47L12.86 4.5C12.52 4.79 12.03 4.79 11.7 4.5L14.32 1.47ZM6.28 7.12C6.28 7.6 5.94 8.01 5.47 8.1L4.69 4.18C3.29 4.46 2.28 5.69 2.28 7.12L6.28 7.12Z" fill="#FFFFFF" fill-opacity="0.300000" fill-rule="nonzero"/>
	</g>
	<mask id="mask12_130" mask-type="alpha" maskUnits="userSpaceOnUse" x="12.282227" y="1.308105" width="12.000000" height="22.000000">
		<path id="Vector" d="M12.28 1.3L24.28 1.3L24.28 23.3L12.28 23.3L12.28 1.3Z" fill="#000000" fill-opacity="1.000000" fill-rule="evenodd"/>
	</mask>
	<g mask="url(#mask12_130)">
		<mask id="mask12_134" mask-type="alpha" maskUnits="userSpaceOnUse" x="4.282227" y="2.718140" width="16.000000" height="20.589935">
			<path id="Vector" d="M4.28 7.12C4.28 6.65 4.61 6.24 5.08 6.14L5.12 6.14C7.5 5.66 9.72 4.57 11.55 2.98C11.96 2.62 12.59 2.62 13.01 2.98C14.84 4.57 17.05 5.66 19.44 6.14L19.47 6.14C19.94 6.24 20.28 6.65 20.28 7.12L20.28 11.07C20.28 16.38 17.14 21.18 12.28 23.3C7.42 21.18 4.28 16.38 4.28 11.07L4.28 7.12Z" fill="#FFFFFF" fill-opacity="1.000000" fill-rule="nonzero"/>
		</mask>
		<g mask="url(#mask12_134)">
			<path id="Vector" d="M12.28 23.3L11.48 25.14L12.28 25.49L13.08 25.14L12.28 23.3ZM18.28 7.12L18.28 11.07L22.28 11.07L22.28 7.12L18.28 7.12ZM6.28 11.07L6.28 7.12L2.28 7.12L2.28 11.07L6.28 11.07ZM2.28 11.07C2.28 17.17 5.89 22.69 11.48 25.14L13.08 21.47C8.95 19.66 6.28 15.58 6.28 11.07L2.28 11.07ZM18.28 11.07C18.28 15.58 15.61 19.66 11.48 21.47L13.08 25.14C18.67 22.69 22.28 17.17 22.28 11.07L18.28 11.07ZM5.47 8.1L5.51 8.1L4.72 4.17L4.69 4.18L5.47 8.1ZM19.05 8.1L19.08 8.1L19.87 4.18L19.83 4.17L19.05 8.1ZM11.7 4.5C13.79 6.31 16.32 7.55 19.05 8.1L19.83 4.17C17.79 3.77 15.89 2.83 14.32 1.47L11.7 4.5ZM5.51 8.1C8.23 7.55 10.76 6.31 12.86 4.5L10.24 1.47C8.67 2.83 6.77 3.77 4.72 4.17L5.51 8.1ZM22.28 7.12C22.28 5.69 21.27 4.46 19.87 4.18L19.08 8.1C18.61 8.01 18.28 7.6 18.28 7.12L22.28 7.12ZM14.32 1.47C13.15 0.46 11.4 0.46 10.24 1.47L12.86 4.5C12.52 4.79 12.03 4.79 11.7 4.5L14.32 1.47ZM6.28 7.12C6.28 7.6 5.94 8.01 5.47 8.1L4.69 4.18C3.29 4.46 2.28 5.69 2.28 7.12L6.28 7.12Z" fill="#FFFFFF" fill-opacity="1.000000" fill-rule="nonzero"/>
		</g>
	</g>
</svg>
