<svg width="29.329590" height="29.329590" viewBox="0 0 29.3296 29.3296" fill="none" xmlns="http://www.w3.org/2000/svg" xmlns:xlink="http://www.w3.org/1999/xlink">
	<desc>
			Created with Pixso.
	</desc>
	<defs>
		<linearGradient x1="1466.480469" y1="0.000000" x2="1466.480469" y2="2932.960938" id="paint_linear_12_31_0" gradientUnits="userSpaceOnUse">
			<stop stop-color="#6934FF"/>
			<stop offset="1.000000" stop-color="#229ED9"/>
		</linearGradient>
	</defs>
	<path id="Vector" d="M14.66 0C10.77 0 7.04 1.54 4.29 4.29C1.54 7.04 0 10.77 0 14.66C0 18.55 1.54 22.28 4.29 25.03C7.04 27.78 10.77 29.32 14.66 29.32C18.55 29.32 22.28 27.78 25.03 25.03C27.78 22.28 29.32 18.55 29.32 14.66C29.32 10.77 27.78 7.04 25.03 4.29C22.28 1.54 18.55 0 14.66 0Z" fill="url(#paint_linear_12_31_0)" fill-opacity="1.000000" fill-rule="nonzero"/>
	<path id="Vector" d="M6.63 14.5C10.91 12.64 13.76 11.41 15.18 10.82C19.26 9.13 20.1 8.83 20.66 8.82C20.78 8.82 21.05 8.85 21.22 8.99C21.37 9.11 21.41 9.28 21.43 9.39C21.45 9.51 21.48 9.77 21.46 9.97C21.24 12.29 20.28 17.91 19.79 20.51C19.59 21.61 19.19 21.98 18.79 22.01C17.94 22.09 17.29 21.45 16.47 20.91C15.18 20.07 14.45 19.54 13.2 18.71C11.75 17.76 12.69 17.23 13.51 16.38C13.73 16.15 17.48 12.74 17.55 12.43C17.56 12.39 17.57 12.25 17.49 12.17C17.4 12.1 17.27 12.12 17.18 12.14C17.05 12.17 14.99 13.53 11 16.23C10.41 16.63 9.88 16.83 9.41 16.82C8.88 16.81 7.87 16.52 7.13 16.28C6.21 15.98 5.48 15.82 5.54 15.32C5.57 15.05 5.94 14.78 6.63 14.5Z" fill="#FFFFFF" fill-opacity="1.000000" fill-rule="nonzero"/>
</svg>
