<svg width="28.500000" height="28.500000" viewBox="0 0 28.5 28.5" fill="none" xmlns="http://www.w3.org/2000/svg" xmlns:xlink="http://www.w3.org/1999/xlink">
	<desc>
			Created with Pixso.
	</desc>
	<defs/>
	<rect id="Rectangle 24" x="3.250000" y="4.250000" width="22.000000" height="20.000000" fill="#FFFFFF" fill-opacity="1.000000"/>
	<path id="Vector" d="M1.99 1.99C0 4 0 7.22 0 13.68L0 14.81C0 21.26 0 24.48 1.99 26.5C4 28.5 7.22 28.5 13.67 28.5L14.82 28.5C21.26 28.5 24.48 28.5 26.5 26.5C28.5 24.49 28.5 21.27 28.5 14.81L28.5 13.68C28.5 7.23 28.5 4.01 26.5 1.99C24.49 0 21.27 0 14.82 0L13.67 0C7.23 0 4.01 0 1.99 1.99ZM4.8 8.67L8.07 8.67C8.17 14.1 10.57 16.4 12.47 16.88L12.47 8.67L15.54 8.67L15.54 13.35C17.41 13.15 19.38 11.02 20.05 8.66L23.11 8.66C22.86 9.88 22.36 11.03 21.64 12.05C20.93 13.07 20.01 13.93 18.95 14.58C20.13 15.17 21.18 16 22.02 17.03C22.86 18.05 23.48 19.25 23.82 20.52L20.45 20.52C19.73 18.27 17.92 16.53 15.54 16.29L15.54 20.52L15.16 20.52C8.66 20.52 4.95 16.08 4.8 8.67Z" fill="#6C32FE" fill-opacity="1.000000" fill-rule="nonzero"/>
</svg>
