<?xml version="1.0" encoding="UTF-8"?> <svg xmlns="http://www.w3.org/2000/svg" id="icons" height="512" viewBox="0 0 64 64" width="512"> <path d="m18.002 44.502c-4.964 0-9.002 4.038-9.002 9.002l.001 8.98c0 .553.448 1 1 1 .553 0 1-.448 1-1l-.001-8.98c0-3.861 3.141-7.002 7.002-7.002h6.762l3.789 1.893c.017.008.034.005.051.012.124.055.255.093.394.094h.002.001c.002 0 .004-.001.006-.001.098-.001.193-.018.287-.046.007-.003.015-.001.022-.004l2.684-.894 2.685.894c.008.003.016.001.022.004.094.028.189.045.287.046.002 0 .004.001.006.001h.001.002c.139-.001.27-.039.394-.094.017-.007.034-.004.051-.012l3.789-1.893h6.762c3.861 0 7.002 3.141 7.002 7.002v8.98c0 .553.447 1 1 1s1-.447 1-1v-8.98c0-4.964-4.038-9.002-9.002-9.002h-5.999v-4.165c4.774-2.771 8-7.929 8-13.835v-4.002h1c.127 0 .252-.027.371-.075.052-.021.093-.057.14-.085.054-.032.112-.055.161-.099.007-.006.009-.014.015-.021.055-.051.091-.116.132-.179.031-.047.071-.088.094-.139.021-.047.023-.101.037-.151.021-.076.044-.15.046-.229 0-.008.005-.015.005-.022 0-.049-.021-.091-.027-.138-.011-.075-.018-.149-.045-.221-.026-.069-.07-.125-.11-.186-.027-.042-.041-.09-.076-.128-.055-.061-.555-.591-1.741-1.262v-2.065c0-8.484-6.645-15.429-15-15.949v-.051c0-.553-.447-1-1-1s-1 .447-1 1v.051c-8.357.52-15.002 7.465-15.002 15.949v2.066c-1.187.671-1.687 1.201-1.741 1.262-.035.039-.049.087-.077.129-.04.061-.083.116-.109.184-.024.064-.029.131-.04.198-.01.055-.033.104-.033.161 0 .009.005.017.005.026.002.046.02.089.027.134.06.356.292.648.623.771.014.005.028.004.042.008.097.032.196.061.303.061h1v4.002c0 5.906 3.226 11.063 8 13.835v4.165zm19.998.382-3.076 1.536-2.608-.867c-.04-.013-.08-.007-.12-.015-.064-.013-.128-.022-.195-.022-.066 0-.13.01-.194.022-.04.008-.081.002-.121.015l-2.608.867-3.078-1.536v-3.56c1.854.754 3.878 1.178 6 1.178s4.146-.424 6-1.178zm-20-27.384c0-7.72 6.28-14 14-14s14 6.28 14 14v1.125c-2.702-1.069-7.111-2.125-14-2.125s-11.298 1.056-14 2.125zm27.285 3h-26.568c2.436-.971 6.582-2 13.283-2 6.704 0 10.852 1.03 13.285 2zm-27.285 6.002v-4.002h28v4.002c0 7.72-6.28 14-14 14s-14-6.28-14-14z"></path> <path d="m36 10.5c0-2.206-1.794-4-4-4s-4 1.794-4 4 1.794 4 4 4 4-1.794 4-4zm-6 0c0-1.103.897-2 2-2s2 .897 2 2-.897 2-2 2-2-.897-2-2z"></path> <path d="m48.014 63.484c.553 0 1-.447 1-1v-6.967c0-.004-.002-.007-.002-.01-.002-.127-.025-.253-.075-.372-.051-.123-.124-.234-.217-.326l-3.994-3.998c-.092-.093-.203-.166-.326-.217-.122-.051-.252-.077-.382-.077h-24.004c-.13 0-.26.026-.382.077-.123.051-.234.124-.326.217l-3.994 3.998c-.093.092-.166.203-.217.326-.049.119-.074.245-.075.372 0 .003-.002.006-.002.01v6.983c0 .553.447 1 1 1s1-.447 1-1v-5.982h10.982v3c0 .553.447 1 1 1h6c.553 0 1-.447 1-1v-3h11.014v5.967c0 .552.447.999 1 .999zm-19.792-8.966h-9.792l1.998-2h8.302zm2.572-2h2.438l.492 2h-3.438zm3.206 6h-4v-2h4zm1.783-4-.492-2h8.313l1.998 2z"></path> </svg> 